<svg width="60" height="65" viewBox="0 0 60 65" fill="none" xmlns="http://www.w3.org/2000/svg">
<path d="M50 19.4546C51.3556 19.4546 52.4545 18.3556 52.4545 17C52.4545 15.6444 51.3556 14.5455 50 14.5455C48.6443 14.5455 47.5454 15.6444 47.5454 17C47.5454 18.3556 48.6443 19.4546 50 19.4546Z" stroke="black" stroke-width="2" stroke-linecap="round" stroke-linejoin="round"/>
<path d="M56.0545 19.4545C55.9456 19.7013 55.9131 19.9751 55.9613 20.2405C56.0094 20.5059 56.1359 20.7508 56.3245 20.9436L56.3736 20.9927C56.5258 21.1447 56.6465 21.3252 56.7288 21.5238C56.8112 21.7225 56.8536 21.9354 56.8536 22.1505C56.8536 22.3655 56.8112 22.5784 56.7288 22.7771C56.6465 22.9757 56.5258 23.1562 56.3736 23.3082C56.2217 23.4603 56.0412 23.581 55.8425 23.6634C55.6439 23.7457 55.431 23.7881 55.2159 23.7881C55.0009 23.7881 54.7879 23.7457 54.5893 23.6634C54.3906 23.581 54.2102 23.4603 54.0582 23.3082L54.0091 23.2591C53.8163 23.0705 53.5714 22.9439 53.3059 22.8958C53.0405 22.8477 52.7668 22.8802 52.52 22.9891C52.278 23.0928 52.0716 23.265 51.9263 23.4845C51.7809 23.704 51.7029 23.9613 51.7018 24.2245V24.3636C51.7018 24.7976 51.5294 25.2138 51.2225 25.5207C50.9157 25.8276 50.4994 26 50.0655 26C49.6315 26 49.2152 25.8276 48.9084 25.5207C48.6015 25.2138 48.4291 24.7976 48.4291 24.3636V24.29C48.4228 24.0192 48.3351 23.7565 48.1775 23.5362C48.0199 23.3159 47.7997 23.1481 47.5455 23.0545C47.2987 22.9456 47.0249 22.9131 46.7595 22.9613C46.4941 23.0094 46.2492 23.1359 46.0564 23.3245L46.0073 23.3736C45.8553 23.5258 45.6748 23.6465 45.4762 23.7288C45.2775 23.8112 45.0646 23.8536 44.8495 23.8536C44.6345 23.8536 44.4216 23.8112 44.2229 23.7288C44.0243 23.6465 43.8438 23.5258 43.6918 23.3736C43.5397 23.2217 43.419 23.0412 43.3366 22.8425C43.2543 22.6439 43.2119 22.431 43.2119 22.2159C43.2119 22.0009 43.2543 21.7879 43.3366 21.5893C43.419 21.3906 43.5397 21.2102 43.6918 21.0582L43.7409 21.0091C43.9295 20.8163 44.0561 20.5714 44.1042 20.3059C44.1523 20.0405 44.1198 19.7668 44.0109 19.52C43.9072 19.278 43.735 19.0716 43.5155 18.9263C43.296 18.7809 43.0387 18.7029 42.7755 18.7018H42.6364C42.2024 18.7018 41.7862 18.5294 41.4793 18.2225C41.1724 17.9157 41 17.4994 41 17.0655C41 16.6315 41.1724 16.2152 41.4793 15.9084C41.7862 15.6015 42.2024 15.4291 42.6364 15.4291H42.71C42.9808 15.4228 43.2435 15.3351 43.4638 15.1775C43.6841 15.0199 43.8519 14.7997 43.9455 14.5455C44.0544 14.2987 44.0869 14.0249 44.0387 13.7595C43.9906 13.4941 43.8641 13.2492 43.6755 13.0564L43.6264 13.0073C43.4742 12.8553 43.3535 12.6748 43.2712 12.4762C43.1888 12.2775 43.1464 12.0646 43.1464 11.8495C43.1464 11.6345 43.1888 11.4216 43.2712 11.2229C43.3535 11.0243 43.4742 10.8438 43.6264 10.6918C43.7783 10.5397 43.9588 10.419 44.1575 10.3366C44.3561 10.2543 44.569 10.2119 44.7841 10.2119C44.9991 10.2119 45.2121 10.2543 45.4107 10.3366C45.6094 10.419 45.7898 10.5397 45.9418 10.6918L45.9909 10.7409C46.1837 10.9295 46.4286 11.0561 46.6941 11.1042C46.9595 11.1523 47.2332 11.1198 47.48 11.0109H47.5455C47.7874 10.9072 47.9938 10.735 48.1392 10.5155C48.2846 10.296 48.3626 10.0387 48.3636 9.77545V9.63636C48.3636 9.20237 48.536 8.78616 48.8429 8.47928C49.1498 8.1724 49.566 8 50 8C50.434 8 50.8502 8.1724 51.1571 8.47928C51.464 8.78616 51.6364 9.20237 51.6364 9.63636V9.71C51.6374 9.97328 51.7154 10.2305 51.8608 10.45C52.0062 10.6695 52.2126 10.8417 52.4545 10.9455C52.7013 11.0544 52.9751 11.0869 53.2405 11.0387C53.5059 10.9906 53.7508 10.8641 53.9436 10.6755L53.9927 10.6264C54.1447 10.4742 54.3252 10.3535 54.5238 10.2712C54.7225 10.1888 54.9354 10.1464 55.1505 10.1464C55.3655 10.1464 55.5784 10.1888 55.7771 10.2712C55.9757 10.3535 56.1562 10.4742 56.3082 10.6264C56.4603 10.7783 56.581 10.9588 56.6634 11.1575C56.7457 11.3561 56.7881 11.569 56.7881 11.7841C56.7881 11.9991 56.7457 12.2121 56.6634 12.4107C56.581 12.6094 56.4603 12.7898 56.3082 12.9418L56.2591 12.9909C56.0705 13.1837 55.9439 13.4286 55.8958 13.6941C55.8477 13.9595 55.8802 14.2332 55.9891 14.48V14.5455C56.0928 14.7874 56.265 14.9938 56.4845 15.1392C56.704 15.2846 56.9613 15.3626 57.2245 15.3636H57.3636C57.7976 15.3636 58.2138 15.536 58.5207 15.8429C58.8276 16.1498 59 16.566 59 17C59 17.434 58.8276 17.8502 58.5207 18.1571C58.2138 18.464 57.7976 18.6364 57.3636 18.6364H57.29C57.0267 18.6374 56.7695 18.7154 56.55 18.8608C56.3305 19.0062 56.1583 19.2126 56.0545 19.4545V19.4545Z" stroke="black" stroke-width="2" stroke-linecap="round" stroke-linejoin="round"/>
<path d="M18 52H40C40 47.7344 41.066 43.5363 43.1011 39.7875L49.5 28H8.5L14.8989 39.7875C16.934 43.5363 18 47.7344 18 52Z" fill="black"/>
<path fill-rule="evenodd" clip-rule="evenodd" d="M20.0367 56C20.0124 56.1647 20 56.3315 20 56.5C20 59.5376 24.0294 62 29 62C33.9706 62 38 59.5376 38 56.5C38 56.3315 37.9876 56.1647 37.9633 56H20.0367Z" fill="black"/>
<ellipse cx="29" cy="62" rx="4" ry="3" fill="black"/>
<path fill-rule="evenodd" clip-rule="evenodd" d="M43.2799 7.60235C40.1138 9.53363 38 13.02 38 17C38 23.0751 42.9249 28 49 28C49.1349 28 49.2692 27.9976 49.4029 27.9928C47.1623 37.1804 38.8776 44 29 44C17.402 44 8 34.598 8 23C8 11.402 17.402 2 29 2C34.5147 2 39.5329 4.12567 43.2799 7.60235Z" fill="black"/>
<path d="M14.4999 15.5C12.4999 20.3333 10 27.5 16.4995 33.5" stroke="white" stroke-dasharray="2 2"/>
<path d="M18 35C19 35.8333 21 38.5 20.5 41.5" stroke="white"/>
<mask id="path-9-inside-1_766_77" fill="white">
<path d="M7 36L7.38396 38.616L10 39L7.38396 39.384L7 42L6.61604 39.384L4 39L6.61604 38.616L7 36Z"/>
</mask>
<path d="M7 36L7.9894 35.8548H6.0106L7 36ZM7.38396 38.616L6.39456 38.7613L6.5026 39.4974L7.23874 39.6054L7.38396 38.616ZM10 39L10.1452 39.9894V38.0106L10 39ZM7.38396 39.384L7.23874 38.3946L6.5026 38.5026L6.39456 39.2387L7.38396 39.384ZM7 42L6.0106 42.1452H7.9894L7 42ZM6.61604 39.384L7.60544 39.2387L7.4974 38.5026L6.76126 38.3946L6.61604 39.384ZM4 39L3.85478 38.0106V39.9894L4 39ZM6.61604 38.616L6.76126 39.6054L7.4974 39.4974L7.60544 38.7613L6.61604 38.616ZM6.0106 36.1452L6.39456 38.7613L8.37336 38.4708L7.9894 35.8548L6.0106 36.1452ZM7.23874 39.6054L9.85478 39.9894L10.1452 38.0106L7.52917 37.6266L7.23874 39.6054ZM9.85478 38.0106L7.23874 38.3946L7.52917 40.3734L10.1452 39.9894L9.85478 38.0106ZM6.39456 39.2387L6.0106 41.8548L7.9894 42.1452L8.37336 39.5292L6.39456 39.2387ZM7.9894 41.8548L7.60544 39.2387L5.62664 39.5292L6.0106 42.1452L7.9894 41.8548ZM6.76126 38.3946L4.14522 38.0106L3.85478 39.9894L6.47083 40.3734L6.76126 38.3946ZM4.14522 39.9894L6.76126 39.6054L6.47083 37.6266L3.85478 38.0106L4.14522 39.9894ZM7.60544 38.7613L7.9894 36.1452L6.0106 35.8548L5.62664 38.4708L7.60544 38.7613Z" fill="black" mask="url(#path-9-inside-1_766_77)"/>
<mask id="path-11-inside-2_766_77" fill="white">
<path d="M3 26L3.38396 28.616L6 29L3.38396 29.384L3 32L2.61604 29.384L0 29L2.61604 28.616L3 26Z"/>
</mask>
<path d="M3 26L3.9894 25.8548H2.0106L3 26ZM3.38396 28.616L2.39456 28.7613L2.5026 29.4974L3.23874 29.6054L3.38396 28.616ZM6 29L6.14522 29.9894V28.0106L6 29ZM3.38396 29.384L3.23874 28.3946L2.5026 28.5026L2.39456 29.2387L3.38396 29.384ZM3 32L2.0106 32.1452H3.9894L3 32ZM2.61604 29.384L3.60544 29.2387L3.4974 28.5026L2.76126 28.3946L2.61604 29.384ZM0 29L-0.145215 28.0106V29.9894L0 29ZM2.61604 28.616L2.76126 29.6054L3.4974 29.4974L3.60544 28.7613L2.61604 28.616ZM2.0106 26.1452L2.39456 28.7613L4.37336 28.4708L3.9894 25.8548L2.0106 26.1452ZM3.23874 29.6054L5.85478 29.9894L6.14522 28.0106L3.52917 27.6266L3.23874 29.6054ZM5.85478 28.0106L3.23874 28.3946L3.52917 30.3734L6.14522 29.9894L5.85478 28.0106ZM2.39456 29.2387L2.0106 31.8548L3.9894 32.1452L4.37336 29.5292L2.39456 29.2387ZM3.9894 31.8548L3.60544 29.2387L1.62664 29.5292L2.0106 32.1452L3.9894 31.8548ZM2.76126 28.3946L0.145215 28.0106L-0.145215 29.9894L2.47083 30.3734L2.76126 28.3946ZM0.145215 29.9894L2.76126 29.6054L2.47083 27.6266L-0.145215 28.0106L0.145215 29.9894ZM3.60544 28.7613L3.9894 26.1452L2.0106 25.8548L1.62664 28.4708L3.60544 28.7613Z" fill="black" mask="url(#path-11-inside-2_766_77)"/>
<mask id="path-13-inside-3_766_77" fill="white">
<path d="M13 0L13.384 2.61604L16 3L13.384 3.38396L13 6L12.616 3.38396L10 3L12.616 2.61604L13 0Z"/>
</mask>
<path d="M13 0L13.9894 -0.145215H12.0106L13 0ZM13.384 2.61604L12.3946 2.76126L12.5026 3.4974L13.2387 3.60544L13.384 2.61604ZM16 3L16.1452 3.9894V2.0106L16 3ZM13.384 3.38396L13.2387 2.39456L12.5026 2.5026L12.3946 3.23874L13.384 3.38396ZM13 6L12.0106 6.14522H13.9894L13 6ZM12.616 3.38396L13.6054 3.23874L13.4974 2.5026L12.7613 2.39456L12.616 3.38396ZM10 3L9.85478 2.0106V3.9894L10 3ZM12.616 2.61604L12.7613 3.60544L13.4974 3.4974L13.6054 2.76126L12.616 2.61604ZM12.0106 0.145215L12.3946 2.76126L14.3734 2.47083L13.9894 -0.145215L12.0106 0.145215ZM13.2387 3.60544L15.8548 3.9894L16.1452 2.0106L13.5292 1.62664L13.2387 3.60544ZM15.8548 2.0106L13.2387 2.39456L13.5292 4.37336L16.1452 3.9894L15.8548 2.0106ZM12.3946 3.23874L12.0106 5.85478L13.9894 6.14522L14.3734 3.52917L12.3946 3.23874ZM13.9894 5.85478L13.6054 3.23874L11.6266 3.52917L12.0106 6.14522L13.9894 5.85478ZM12.7613 2.39456L10.1452 2.0106L9.85478 3.9894L12.4708 4.37336L12.7613 2.39456ZM10.1452 3.9894L12.7613 3.60544L12.4708 1.62664L9.85478 2.0106L10.1452 3.9894ZM13.6054 2.76126L13.9894 0.145215L12.0106 -0.145215L11.6266 2.47083L13.6054 2.76126Z" fill="black" mask="url(#path-13-inside-3_766_77)"/>
<circle cx="3.5" cy="14.5" r="1.5" fill="black"/>
</svg>
