<svg width="56" height="56" viewBox="0 0 56 56" fill="none" xmlns="http://www.w3.org/2000/svg">
<path d="M44.3333 9.33325H11.6667C9.08934 9.33325 7 11.4226 7 13.9999V46.6666C7 49.2439 9.08934 51.3333 11.6667 51.3333H44.3333C46.9107 51.3333 49 49.2439 49 46.6666V13.9999C49 11.4226 46.9107 9.33325 44.3333 9.33325Z" stroke="black" stroke-width="2" stroke-linecap="round" stroke-linejoin="round"/>
<path d="M6.71484 15.0557C6.71484 12.2942 8.95342 10.0557 11.7148 10.0557H43.7148C46.4763 10.0557 48.7148 12.2942 48.7148 15.0557V24.0557H6.71484V15.0557Z" fill="black"/>
<path d="M37.3335 4.66675V14.0001" stroke="black" stroke-width="2" stroke-linecap="round" stroke-linejoin="round"/>
<path d="M37.3335 8.66675V13.6667" stroke="white" stroke-width="2" stroke-linecap="round" stroke-linejoin="round"/>
<path d="M18.6665 4.66675V14.0001" stroke="black" stroke-width="2" stroke-linecap="round" stroke-linejoin="round"/>
<path d="M18.7148 9.05566L18.7148 14.0557" stroke="white" stroke-width="2" stroke-linecap="round" stroke-linejoin="round"/>
<path d="M7 23.3333H49" stroke="black" stroke-width="2" stroke-linecap="round" stroke-linejoin="round"/>
</svg>
