<svg width="56" height="56" viewBox="0 0 56 56" fill="none" xmlns="http://www.w3.org/2000/svg">
<g clip-path="url(#clip0_982_10)">
<path d="M2.3335 2.33325L53.6668 53.6666" stroke="black" stroke-width="5" stroke-linecap="round" stroke-linejoin="round"/>
<path d="M39.0132 25.8066C40.9244 26.7394 42.7116 27.9073 44.3332 29.2833" stroke="black" stroke-width="5" stroke-linecap="round" stroke-linejoin="round"/>
<path d="M11.6665 29.2835C15.1247 26.3921 19.2869 24.468 23.7298 23.7068" stroke="black" stroke-width="5" stroke-linecap="round" stroke-linejoin="round"/>
<path d="M24.9902 11.7832C29.9892 11.3804 35.0181 11.9889 39.7767 13.5725C44.5353 15.156 48.9261 17.6821 52.6869 20.9999" stroke="black" stroke-width="5" stroke-linecap="round" stroke-linejoin="round"/>
<path d="M3.31348 21C6.5502 18.139 10.2614 15.8649 14.2801 14.28" stroke="black" stroke-width="5" stroke-linecap="round" stroke-linejoin="round"/>
<path d="M19.9033 37.59C22.2721 35.9071 25.1059 35.0029 28.0117 35.0029C30.9174 35.0029 33.7512 35.9071 36.12 37.59" stroke="black" stroke-width="5" stroke-linecap="round" stroke-linejoin="round"/>
<path d="M28 46.6667H28.0233" stroke="black" stroke-width="6" stroke-linecap="round" stroke-linejoin="round"/>
</g>
<defs>
<clipPath id="clip0_982_10">
<rect width="56" height="56" fill="white"/>
</clipPath>
</defs>
</svg>
