<svg width="82" height="38" viewBox="0 0 82 38" fill="none" xmlns="http://www.w3.org/2000/svg">
<circle cx="41.1322" cy="9.76896" r="8.26896" fill="black" stroke="black" stroke-width="3"/>
<circle cx="65.7133" cy="9.76896" r="8.26896" fill="black" stroke="black" stroke-width="3"/>
<circle r="8.26896" transform="matrix(-1 0 0 1 15.63 9.76896)" fill="black" stroke="black" stroke-width="3"/>
<mask id="path-4-inside-1_776_93" fill="white">
<path fill-rule="evenodd" clip-rule="evenodd" d="M56.7628 37.9618C56.7628 37.9618 56.7628 37.9618 56.7628 37.9618C56.7628 29.8689 49.6555 23.3083 40.8882 23.3083C32.121 23.3083 25.0137 29.8689 25.0137 37.9618C25.0137 37.9618 25.0137 37.9618 25.0137 37.9618H56.7628Z"/>
</mask>
<path fill-rule="evenodd" clip-rule="evenodd" d="M56.7628 37.9618C56.7628 37.9618 56.7628 37.9618 56.7628 37.9618C56.7628 29.8689 49.6555 23.3083 40.8882 23.3083C32.121 23.3083 25.0137 29.8689 25.0137 37.9618C25.0137 37.9618 25.0137 37.9618 25.0137 37.9618H56.7628Z" fill="black"/>
<path d="M56.7628 37.9618V40.9618H59.7628V37.9618H56.7628ZM25.0137 37.9618H22.0137V40.9618H25.0137V37.9618ZM53.7628 37.9618V37.9618V37.9618V37.9618C53.7628 37.9618 53.7628 37.9618 53.7628 37.9618C53.7628 37.9618 53.7628 37.9618 53.7628 37.9618V37.9618C53.7628 37.9618 53.7628 37.9618 53.7628 37.9618V37.9618C53.7628 37.9618 53.7628 37.9618 53.7628 37.9618C53.7628 37.9618 53.7628 37.9618 53.7628 37.9618V37.9618C53.7628 37.9618 53.7628 37.9618 53.7628 37.9618C53.7628 37.9618 53.7628 37.9618 53.7628 37.9618V37.9618C53.7628 37.9618 53.7628 37.9618 53.7628 37.9618C53.7628 37.9618 53.7628 37.9618 53.7628 37.9618C53.7628 37.9618 53.7628 37.9618 53.7628 37.9618V37.9618C53.7628 37.9618 53.7628 37.9618 53.7628 37.9618C53.7628 37.9618 53.7628 37.9618 53.7628 37.9618V37.9618C53.7628 37.9618 53.7628 37.9618 53.7628 37.9618C53.7628 37.9618 53.7628 37.9618 53.7628 37.9618V37.9618C53.7628 37.9618 53.7628 37.9618 53.7628 37.9618V37.9618C53.7628 37.9618 53.7628 37.9618 53.7628 37.9618C53.7628 37.9618 53.7628 37.9618 53.7628 37.9618V37.9618V37.9618V37.9618H59.7628V37.9618V37.9618V37.9618C59.7628 37.9618 59.7628 37.9618 59.7628 37.9618C59.7628 37.9618 59.7628 37.9618 59.7628 37.9618V37.9618C59.7628 37.9618 59.7628 37.9618 59.7628 37.9618V37.9618C59.7628 37.9618 59.7628 37.9618 59.7628 37.9618C59.7628 37.9618 59.7628 37.9618 59.7628 37.9618V37.9618C59.7628 37.9618 59.7628 37.9618 59.7628 37.9618C59.7628 37.9618 59.7628 37.9618 59.7628 37.9618V37.9618C59.7628 37.9618 59.7628 37.9618 59.7628 37.9618C59.7628 37.9618 59.7628 37.9618 59.7628 37.9618C59.7628 37.9618 59.7628 37.9618 59.7628 37.9618V37.9618C59.7628 37.9618 59.7628 37.9618 59.7628 37.9618C59.7628 37.9618 59.7628 37.9618 59.7628 37.9618V37.9618C59.7628 37.9618 59.7628 37.9618 59.7628 37.9618C59.7628 37.9618 59.7628 37.9618 59.7628 37.9618V37.9618C59.7628 37.9618 59.7628 37.9618 59.7628 37.9618V37.9618C59.7628 37.9618 59.7628 37.9618 59.7628 37.9618C59.7628 37.9618 59.7628 37.9618 59.7628 37.9618V37.9618V37.9618V37.9618H53.7628ZM40.8882 26.3083C48.2293 26.3083 53.7628 31.7473 53.7628 37.9618H59.7628C59.7628 27.9905 51.0818 20.3083 40.8882 20.3083V26.3083ZM28.0137 37.9618C28.0137 31.7473 33.5472 26.3083 40.8882 26.3083V20.3083C30.6947 20.3083 22.0137 27.9905 22.0137 37.9618H28.0137ZM28.0137 37.9618C28.0137 37.9618 28.0137 37.9618 28.0137 37.9618C28.0137 37.9618 28.0137 37.9618 28.0137 37.9618H22.0137C22.0137 37.9618 22.0137 37.9618 22.0137 37.9618C22.0137 37.9618 22.0137 37.9618 22.0137 37.9618H28.0137ZM25.0137 40.9618H56.7628V34.9618H25.0137V40.9618Z" fill="black" mask="url(#path-4-inside-1_776_93)"/>
<mask id="path-6-inside-2_776_93" fill="white">
<path fill-rule="evenodd" clip-rule="evenodd" d="M58.7209 37.9618V37.9619H81.3438V37.9618C81.3438 29.8689 74.2365 23.3084 65.4692 23.3084C61.0414 23.3084 57.0371 24.9817 54.1578 27.6807C56.9797 30.3258 58.7209 33.9561 58.7209 37.9618Z"/>
</mask>
<path fill-rule="evenodd" clip-rule="evenodd" d="M58.7209 37.9618V37.9619H81.3438V37.9618C81.3438 29.8689 74.2365 23.3084 65.4692 23.3084C61.0414 23.3084 57.0371 24.9817 54.1578 27.6807C56.9797 30.3258 58.7209 33.9561 58.7209 37.9618Z" fill="black"/>
<path d="M58.7208 37.9618H55.7208V40.9618H58.7208V37.9618ZM81.3437 37.9618V40.9618H84.3437V37.9618H81.3437ZM54.1577 27.6806L52.106 25.4919L49.771 27.6806L52.106 29.8694L54.1577 27.6806ZM61.7208 37.9618V37.9618H55.7208V37.9618H61.7208ZM58.7208 40.9618H81.3437V34.9618H58.7208V40.9618ZM84.3437 37.9618V37.9618H78.3437V37.9618H84.3437ZM84.3437 37.9618C84.3437 27.9905 75.6627 20.3083 65.4691 20.3083V26.3083C72.8102 26.3083 78.3437 31.7473 78.3437 37.9618H84.3437ZM65.4691 20.3083C60.2818 20.3083 55.5432 22.27 52.106 25.4919L56.2094 29.8694C58.5308 27.6934 61.801 26.3083 65.4691 26.3083V20.3083ZM61.7208 37.9618C61.7208 33.0557 59.5824 28.6536 56.2094 25.4919L52.106 29.8694C54.3768 31.9979 55.7208 34.8565 55.7208 37.9618H61.7208Z" fill="black" mask="url(#path-6-inside-2_776_93)"/>
<mask id="path-8-inside-3_776_93" fill="white">
<path fill-rule="evenodd" clip-rule="evenodd" d="M22.6229 37.9618V37.9619H0V37.9618C0 29.8689 7.10728 23.3084 15.8746 23.3084C20.3023 23.3084 24.3067 24.9817 27.186 27.6807C24.3641 30.3258 22.6229 33.9561 22.6229 37.9618Z"/>
</mask>
<path fill-rule="evenodd" clip-rule="evenodd" d="M22.6229 37.9618V37.9619H0V37.9618C0 29.8689 7.10728 23.3084 15.8746 23.3084C20.3023 23.3084 24.3067 24.9817 27.186 27.6807C24.3641 30.3258 22.6229 33.9561 22.6229 37.9618Z" fill="black"/>
<path d="M22.6229 37.9618H25.6229V40.9618H22.6229V37.9618ZM4.19617e-05 37.9618V40.9618H-2.99996V37.9618H4.19617e-05ZM27.186 27.6806L29.2377 25.4919L31.5727 27.6806L29.2377 29.8694L27.186 27.6806ZM19.6229 37.9618V37.9618H25.6229V37.9618H19.6229ZM22.6229 40.9618H4.19617e-05V34.9618H22.6229V40.9618ZM-2.99996 37.9618V37.9618H3.00004V37.9618H-2.99996ZM-2.99996 37.9618C-2.99996 27.9905 5.68109 20.3083 15.8746 20.3083V26.3083C8.53357 26.3083 3.00004 31.7473 3.00004 37.9618H-2.99996ZM15.8746 20.3083C21.062 20.3083 25.8006 22.27 29.2377 25.4919L25.1344 29.8694C22.8129 27.6934 19.5428 26.3083 15.8746 26.3083V20.3083ZM19.6229 37.9618C19.6229 33.0557 21.7613 28.6536 25.1344 25.4919L29.2377 29.8694C26.9669 31.9979 25.6229 34.8565 25.6229 37.9618H19.6229Z" fill="black" mask="url(#path-8-inside-3_776_93)"/>
</svg>
