<svg width="83" height="66" viewBox="0 0 83 66" fill="none" xmlns="http://www.w3.org/2000/svg">
<circle cx="41.1322" cy="37.4755" r="8.26896" fill="black" stroke="black" stroke-width="3"/>
<circle cx="65.7133" cy="37.4755" r="8.26896" fill="black" stroke="black" stroke-width="3"/>
<circle r="8.26896" transform="matrix(-1 0 0 1 15.63 37.4755)" fill="black" stroke="black" stroke-width="3"/>
<mask id="path-4-inside-1_766_91" fill="white">
<path fill-rule="evenodd" clip-rule="evenodd" d="M56.7628 65.6684C56.7628 65.6684 56.7628 65.6684 56.7628 65.6684C56.7628 57.5755 49.6555 51.015 40.8882 51.015C32.121 51.015 25.0137 57.5755 25.0137 65.6684C25.0137 65.6684 25.0137 65.6684 25.0137 65.6684H56.7628Z"/>
</mask>
<path fill-rule="evenodd" clip-rule="evenodd" d="M56.7628 65.6684C56.7628 65.6684 56.7628 65.6684 56.7628 65.6684C56.7628 57.5755 49.6555 51.015 40.8882 51.015C32.121 51.015 25.0137 57.5755 25.0137 65.6684C25.0137 65.6684 25.0137 65.6684 25.0137 65.6684H56.7628Z" fill="black"/>
<path d="M56.7628 65.6684V68.6684H59.7628V65.6684H56.7628ZM25.0137 65.6684H22.0137V68.6684H25.0137V65.6684ZM53.7628 65.6684V65.6684V65.6684V65.6684C53.7628 65.6684 53.7628 65.6684 53.7628 65.6684C53.7628 65.6684 53.7628 65.6684 53.7628 65.6684V65.6684C53.7628 65.6684 53.7628 65.6684 53.7628 65.6684V65.6684C53.7628 65.6684 53.7628 65.6684 53.7628 65.6684C53.7628 65.6684 53.7628 65.6684 53.7628 65.6684V65.6684C53.7628 65.6684 53.7628 65.6684 53.7628 65.6684C53.7628 65.6684 53.7628 65.6684 53.7628 65.6684V65.6684C53.7628 65.6684 53.7628 65.6684 53.7628 65.6684C53.7628 65.6684 53.7628 65.6684 53.7628 65.6684C53.7628 65.6684 53.7628 65.6684 53.7628 65.6684V65.6684C53.7628 65.6684 53.7628 65.6684 53.7628 65.6684C53.7628 65.6684 53.7628 65.6684 53.7628 65.6684V65.6684C53.7628 65.6684 53.7628 65.6684 53.7628 65.6684C53.7628 65.6684 53.7628 65.6684 53.7628 65.6684V65.6684C53.7628 65.6684 53.7628 65.6684 53.7628 65.6684V65.6684C53.7628 65.6684 53.7628 65.6684 53.7628 65.6684C53.7628 65.6684 53.7628 65.6684 53.7628 65.6684V65.6684V65.6684V65.6684H59.7628V65.6684V65.6684V65.6684C59.7628 65.6684 59.7628 65.6684 59.7628 65.6684C59.7628 65.6684 59.7628 65.6684 59.7628 65.6684V65.6684C59.7628 65.6684 59.7628 65.6684 59.7628 65.6684V65.6684C59.7628 65.6684 59.7628 65.6684 59.7628 65.6684C59.7628 65.6684 59.7628 65.6684 59.7628 65.6684V65.6684C59.7628 65.6684 59.7628 65.6684 59.7628 65.6684C59.7628 65.6684 59.7628 65.6684 59.7628 65.6684V65.6684C59.7628 65.6684 59.7628 65.6684 59.7628 65.6684C59.7628 65.6684 59.7628 65.6684 59.7628 65.6684C59.7628 65.6684 59.7628 65.6684 59.7628 65.6684V65.6684C59.7628 65.6684 59.7628 65.6684 59.7628 65.6684C59.7628 65.6684 59.7628 65.6684 59.7628 65.6684V65.6684C59.7628 65.6684 59.7628 65.6684 59.7628 65.6684C59.7628 65.6684 59.7628 65.6684 59.7628 65.6684V65.6684C59.7628 65.6684 59.7628 65.6684 59.7628 65.6684V65.6684C59.7628 65.6684 59.7628 65.6684 59.7628 65.6684C59.7628 65.6684 59.7628 65.6684 59.7628 65.6684V65.6684V65.6684V65.6684H53.7628ZM40.8882 54.015C48.2293 54.015 53.7628 59.454 53.7628 65.6684H59.7628C59.7628 55.6971 51.0818 48.015 40.8882 48.015V54.015ZM28.0137 65.6684C28.0137 59.454 33.5472 54.015 40.8882 54.015V48.015C30.6947 48.015 22.0137 55.6971 22.0137 65.6684H28.0137ZM28.0137 65.6684C28.0137 65.6684 28.0137 65.6684 28.0137 65.6684C28.0137 65.6684 28.0137 65.6684 28.0137 65.6684H22.0137C22.0137 65.6684 22.0137 65.6684 22.0137 65.6684C22.0137 65.6684 22.0137 65.6684 22.0137 65.6684H28.0137ZM25.0137 68.6684H56.7628V62.6684H25.0137V68.6684Z" fill="black" mask="url(#path-4-inside-1_766_91)"/>
<mask id="path-6-inside-2_766_91" fill="white">
<path fill-rule="evenodd" clip-rule="evenodd" d="M58.7208 65.6684V65.6684H81.3437V65.6684C81.3437 57.5755 74.2364 51.015 65.4691 51.015C61.0414 51.015 57.037 52.6883 54.1577 55.3872C56.9796 58.0324 58.7208 61.6627 58.7208 65.6684Z"/>
</mask>
<path fill-rule="evenodd" clip-rule="evenodd" d="M58.7208 65.6684V65.6684H81.3437V65.6684C81.3437 57.5755 74.2364 51.015 65.4691 51.015C61.0414 51.015 57.037 52.6883 54.1577 55.3872C56.9796 58.0324 58.7208 61.6627 58.7208 65.6684Z" fill="black"/>
<path d="M58.7208 65.6684H55.7208V68.6684H58.7208V65.6684ZM81.3437 65.6684V68.6684H84.3437V65.6684H81.3437ZM54.1577 55.3872L52.106 53.1985L49.771 55.3872L52.106 57.576L54.1577 55.3872ZM61.7208 65.6684V65.6684H55.7208V65.6684H61.7208ZM58.7208 68.6684H81.3437V62.6684H58.7208V68.6684ZM84.3437 65.6684V65.6684H78.3437V65.6684H84.3437ZM84.3437 65.6684C84.3437 55.6971 75.6627 48.015 65.4691 48.015V54.015C72.8102 54.015 78.3437 59.454 78.3437 65.6684H84.3437ZM65.4691 48.015C60.2818 48.015 55.5432 49.9766 52.106 53.1985L56.2094 57.576C58.5308 55.4 61.801 54.015 65.4691 54.015V48.015ZM61.7208 65.6684C61.7208 60.7623 59.5824 56.3602 56.2094 53.1985L52.106 57.576C54.3768 59.7045 55.7208 62.5631 55.7208 65.6684H61.7208Z" fill="black" mask="url(#path-6-inside-2_766_91)"/>
<mask id="path-8-inside-3_766_91" fill="white">
<path fill-rule="evenodd" clip-rule="evenodd" d="M22.6229 65.6684V65.6684H4.19617e-05V65.6684C4.19617e-05 57.5755 7.10733 51.015 15.8746 51.015C20.3024 51.015 24.3067 52.6883 27.186 55.3872C24.3641 58.0324 22.6229 61.6627 22.6229 65.6684Z"/>
</mask>
<path fill-rule="evenodd" clip-rule="evenodd" d="M22.6229 65.6684V65.6684H4.19617e-05V65.6684C4.19617e-05 57.5755 7.10733 51.015 15.8746 51.015C20.3024 51.015 24.3067 52.6883 27.186 55.3872C24.3641 58.0324 22.6229 61.6627 22.6229 65.6684Z" fill="black"/>
<path d="M22.6229 65.6684H25.6229V68.6684H22.6229V65.6684ZM4.19617e-05 65.6684V68.6684H-2.99996V65.6684H4.19617e-05ZM27.186 55.3872L29.2377 53.1985L31.5727 55.3872L29.2377 57.576L27.186 55.3872ZM19.6229 65.6684V65.6684H25.6229V65.6684H19.6229ZM22.6229 68.6684H4.19617e-05V62.6684H22.6229V68.6684ZM-2.99996 65.6684V65.6684H3.00004V65.6684H-2.99996ZM-2.99996 65.6684C-2.99996 55.6971 5.68109 48.015 15.8746 48.015V54.015C8.53357 54.015 3.00004 59.454 3.00004 65.6684H-2.99996ZM15.8746 48.015C21.062 48.015 25.8006 49.9766 29.2377 53.1985L25.1344 57.576C22.8129 55.4 19.5428 54.015 15.8746 54.015V48.015ZM19.6229 65.6684C19.6229 60.7623 21.7613 56.3602 25.1344 53.1985L29.2377 57.576C26.9669 59.7045 25.6229 62.5631 25.6229 65.6684H19.6229Z" fill="black" mask="url(#path-8-inside-3_766_91)"/>
<path d="M81.3437 13C81.3437 13.5304 80.9457 14.0391 80.2373 14.4142C79.5288 14.7893 78.5679 15 77.566 15H54.8993L47.3438 19V3C47.3438 2.46957 47.7418 1.96086 48.4502 1.58579C49.1587 1.21071 50.1196 1 51.1215 1H77.566C78.5679 1 79.5288 1.21071 80.2373 1.58579C80.9457 1.96086 81.3437 2.46957 81.3437 3V13Z" stroke="black" stroke-width="2" stroke-linecap="round" stroke-linejoin="round"/>
<path d="M6.34375 17C6.34375 17.5304 6.63641 18.0391 7.15734 18.4142C7.67828 18.7893 8.38482 19 9.12153 19H25.7882L31.3438 23V7C31.3438 6.46957 31.0511 5.96086 30.5302 5.58579C30.0092 5.21071 29.3027 5 28.566 5H9.12153C8.38482 5 7.67828 5.21071 7.15734 5.58579C6.63641 5.96086 6.34375 6.46957 6.34375 7V17Z" stroke="black" stroke-width="2" stroke-linecap="round" stroke-linejoin="round"/>
</svg>
