<svg width="56" height="57" viewBox="0 0 56 57" fill="none" xmlns="http://www.w3.org/2000/svg">
<path d="M27.9679 46.0407C27.2264 30.9118 13.8008 24.2857 5.25137 22.4054C4.06701 22.1449 3 23.0806 3 24.2932V46C3 47.1046 3.89543 48 5 48H26.0376C27.1245 48 28.0211 47.1263 27.9679 46.0407Z" fill="black" stroke="black"/>
<path d="M4.6665 37.5666C6.90859 38.0238 8.9667 39.1303 10.5847 40.7484C12.2028 42.3664 13.3092 44.4245 13.7665 46.6666M4.6665 28.1166C9.40501 28.6436 13.8231 30.7674 17.1944 34.1386C20.5657 37.5099 22.6895 41.9281 23.2165 46.6666M4.6665 18.6666V13.9999C4.6665 12.7622 5.15817 11.5753 6.03334 10.7001C6.90851 9.82492 8.09549 9.33325 9.33317 9.33325H46.6665C47.9042 9.33325 49.0912 9.82492 49.9663 10.7001C50.8415 11.5753 51.3332 12.7622 51.3332 13.9999V41.9999C51.3332 43.2376 50.8415 44.4246 49.9663 45.2997C49.0912 46.1749 47.9042 46.6666 46.6665 46.6666H32.6665" stroke="white" stroke-width="2" stroke-linecap="round" stroke-linejoin="round"/>
<path d="M4.6665 46.6667H4.68984" stroke="white" stroke-width="2" stroke-linecap="round" stroke-linejoin="round"/>
<path d="M4.6665 19.6666V14.9999C4.6665 13.7622 5.15817 12.5753 6.03334 11.7001C6.90851 10.8249 8.09549 10.3333 9.33317 10.3333H46.6665C47.9042 10.3333 49.0912 10.8249 49.9663 11.7001C50.8415 12.5753 51.3332 13.7622 51.3332 14.9999V42.9999C51.3332 44.2376 50.8415 45.4246 49.9663 46.2997C49.0912 47.1749 47.9042 47.6666 46.6665 47.6666H32.6665" stroke="black" stroke-width="2" stroke-linecap="round" stroke-linejoin="round"/>
</svg>
