<svg width="12" height="10" viewBox="0 0 12 10" fill="none" xmlns="http://www.w3.org/2000/svg">
<path d="M2.56836 4.61328C2.78971 4.61328 2.95898 4.79557 3.07617 5.16016C3.29753 5.85026 3.45703 6.19531 3.55469 6.19531C3.63281 6.19531 3.71094 6.13672 3.78906 6.01953C5.39062 3.66927 6.87174 1.99609 8.23242 1C8.81185 0.576823 9.375 0.365234 9.92188 0.365234C10.6445 0.365234 11.0775 0.388021 11.2207 0.433594C11.2858 0.446615 11.3184 0.518229 11.3184 0.648438C11.3184 0.746094 11.2533 0.873047 11.123 1.0293C7.45768 5.22852 5.27669 7.96289 4.58008 9.23242C4.33919 9.66862 3.78581 9.88672 2.91992 9.88672C2.63346 9.88672 2.33398 9.81185 2.02148 9.66211C1.89128 9.59049 1.66341 9.1543 1.33789 8.35352C0.927734 7.33789 0.722656 6.44922 0.722656 5.6875C0.722656 5.40755 0.921224 5.17643 1.31836 4.99414C1.87826 4.74023 2.29492 4.61328 2.56836 4.61328Z" fill="#E63732"/>
</svg>
